<?xml version="1.0" encoding="UTF-8"?>
<svg width="20px" height="16px" viewBox="0 0 20 16" version="1.1" xmlns="http://www.w3.org/2000/svg" xmlns:xlink="http://www.w3.org/1999/xlink">
    <title>Shape</title>
    <g id="Icons" stroke="none" stroke-width="1" fill="none" fill-rule="evenodd">
        <g id="Artboard" transform="translate(-40.000000, -753.000000)" fill="currentColor" fill-rule="nonzero">
            <path d="M42.7063702,760.6 C42.0695913,760.6 41.5384615,761.137375 41.5384615,761.8 C41.5384615,762.462625 42.0695913,763 42.7063702,763 C43.3436218,763 43.8602163,762.462742 43.8602163,761.8 C43.8602163,761.137258 43.3436218,760.6 42.7063702,760.6 Z M42.7063702,766.6 C42.0695913,766.6 41.5384615,767.137375 41.5384615,767.8 C41.5384615,768.462625 42.0695913,769 42.7063702,769 C43.3436218,769 43.8602163,768.462742 43.8602163,767.8 C43.8602163,767.137258 43.3436218,766.6 42.7063702,766.6 Z M59.7115385,755.2 L46.4423077,755.2 C46.2829948,755.2 46.1538462,755.334315 46.1538462,755.5 L46.1538462,756.1 C46.1538462,756.265685 46.2829948,756.4 46.4423077,756.4 L59.7115385,756.4 C59.8708514,756.4 60,756.265685 60,756.1 L60,755.5 C60,755.334315 59.8708514,755.2 59.7115385,755.2 Z M59.7115385,761.2 L46.4423077,761.2 C46.2829948,761.2 46.1538462,761.334315 46.1538462,761.5 L46.1538462,762.1 C46.1538462,762.265685 46.2829948,762.4 46.4423077,762.4 L59.7115385,762.4 C59.8708514,762.4 60,762.265685 60,762.1 L60,761.5 C60,761.334315 59.8708514,761.2 59.7115385,761.2 Z M59.7115385,767.2 C59.8708514,767.2 60,767.334315 60,767.5 L60,767.5 L60,768.1 C60,768.265685 59.8708514,768.4 59.7115385,768.4 L59.7115385,768.4 L46.4423077,768.4 C46.2829948,768.4 46.1538462,768.265685 46.1538462,768.1 L46.1538462,768.1 L46.1538462,767.5 C46.1538462,767.334315 46.2829948,767.2 46.4423077,767.2 L46.4423077,767.2 Z M42.8571429,753.4 C42.9482143,753.4 43.021978,753.476714 43.021978,753.571429 L43.021978,753.571429 L43.021978,755.457143 L44.8351648,755.457143 C44.9262363,755.457143 45,755.533857 45,755.628571 L45,755.628571 L45,755.971429 C45,756.066143 44.9262363,756.142857 44.8351648,756.142857 L44.8351648,756.142857 L43.021978,756.142857 L43.021978,758.028571 C43.021978,758.123286 42.9482143,758.2 42.8571429,758.2 L42.8571429,758.2 L42.5274725,758.2 C42.4364011,758.2 42.3626374,758.123286 42.3626374,758.028571 L42.3626374,758.028571 L42.3626374,756.142857 L40.5494505,756.142857 C40.4583791,756.142857 40.3846154,756.066143 40.3846154,755.971429 L40.3846154,755.971429 L40.3846154,755.628571 C40.3846154,755.533857 40.4583791,755.457143 40.5494505,755.457143 L40.5494505,755.457143 L42.3626374,755.457143 L42.3626374,753.571429 C42.3626374,753.476714 42.4364011,753.4 42.5274725,753.4 L42.5274725,753.4 Z" id="Shape"></path>
        </g>
    </g>
</svg>